<?xml version="1.0" encoding="UTF-8"?>
<svg id="Layer_2" data-name="Layer 2" xmlns="http://www.w3.org/2000/svg" viewBox="0 0 62.52 67.14">
  <defs>
    <style>
      .cls-1 {
        fill: #231f20;
        fill-rule: evenodd;
      }
    </style>
  </defs>
  <g id="Layer_1-2" data-name="Layer 1">
    <path class="cls-1" d="M40.5,11.32s-17.83-7.33-31.58,6.03c0,0,8.75-4.73,13.37-4.08,3.45,7.49,16.91,3.81,18.21-1.95h0ZM52.44,23.44s-12.82-3.61-23.94,9.23c0,0,4.51-2.78,9.08-2.6,0,0-12.93,14.96-7.43,37.08,2.06-18.9,7.31-35.22,22.28-43.7h0ZM0,9.6s28.17-13.25,43.58-1.18c14.98.75,18.65,2.52,14.53,18.57,0,0,5.61-8.04,4.18-14.43-1.43-6.39-13.09-8.34-17.28-7.15C32.29-3.9,16.83-.33,0,9.6"/>
  </g>
</svg>